<?xml version="1.0" encoding="utf-8"?><svg xmlns="http://www.w3.org/2000/svg" xmlns:xlink="http://www.w3.org/1999/xlink"><symbol viewBox="0 0 708 99" id="node_modules--popsicle--logo" xmlns="http://www.w3.org/2000/svg"><g fill="none" fill-rule="evenodd"><g fill="#22b573" font-family="Arial Rounded MT Bold, Comic Sans MS, sans-serif" font-size="100"><text transform="translate(-6.672 -11.847)"><tspan x="0" y="95">P</tspan></text><text transform="translate(-6.672 -11.847)"><tspan x="91.699" y="95">O P</tspan></text><text transform="translate(-6.672 -11.847)"><tspan x="287.598" y="95">S</tspan></text><text transform="translate(-6.672 -11.847)"><tspan x="468" y="95">C</tspan></text><text transform="translate(-6.672 -11.847)"><tspan x="567.023" y="95">L E</tspan></text></g><g fill-rule="nonzero"><path d="M406.89 95.716c0 1.526-1.273 2.764-3.5 2.764s-3.5-1.237-3.5-2.764V53h7z" fill="#c69c6d"/><g fill="#93278f" transform="translate(383)"><rect height="47" rx="4" width="42" y="18"/><path d="M42 19.94C42 8.926 32.606 0 21 0S0 8.927 0 19.94v1.362h42z"/></g></g></g></symbol><symbol id="node_modules--psl--browserstack-logo" viewBox="0 0 490.1 105.6" style="enable-background:new 0 0 490.1 105.6" xml:space="preserve" xmlns="http://www.w3.org/2000/svg"><style>.cst11{fill:#000111}</style><circle cx="52.8" cy="52.8" r="52.8" style="fill:#f4b960"/><circle cx="47.5" cy="47.5" r="47.5" style="fill:#e66f32"/><circle cx="53.8" cy="41.1" r="41.1" style="fill:#e43c41"/><circle cx="57.1" cy="44.4" r="37.8" style="fill:#bdd041"/><circle cx="54.3" cy="47.2" r="35.1" style="fill:#6db54c"/><circle cx="48.8" cy="41.7" r="29.5" style="fill:#aedae6"/><circle cx="53.6" cy="36.8" r="24.7" style="fill:#56b8de"/><circle cx="56.6" cy="39.9" r="21.7" style="fill:#00b1d5"/><radialGradient id="cSVGID_1_" cx="53.45" cy="63.02" r="18.57" gradientTransform="matrix(1 0 0 -1 0 106)" gradientUnits="userSpaceOnUse"><stop offset="0" style="stop-color:#797979"/><stop offset="1" style="stop-color:#4c4c4c"/></radialGradient><circle cx="53.5" cy="43" r="18.6" style="fill:url(#cSVGID_1_)"/><circle cx="53.5" cy="43" r="18.6" style="fill:#221f1f"/><ellipse transform="rotate(-65.832 60.867 36.231)" cx="60.9" cy="36.2" rx="5.7" ry="3.7" style="fill:#fff"/><path class="cst11" d="M122.5 32.6c0-.3.3-.6.6-.6H139.8c9.5 0 13.9 4.4 13.9 11 .2 3.7-1.8 7.2-5.2 8.8v.1c3.7 1.5 6.1 5.2 6 9.3 0 8.2-5.6 12.2-15.4 12.2h-16c-.3 0-.6-.2-.7-.5v-.1l.1-40.2zm17.1 16.5c3.9 0 6.4-2.2 6.4-5.4s-2.4-5.5-6.4-5.5h-8.9c-.2 0-.4.1-.4.3V48.8c0 .2.1.3.3.4h9v-.1zm-9 17.8h9.3c4.3 0 6.8-2.3 6.8-5.8s-2.4-5.7-6.7-5.7h-9.3c-.2 0-.4.1-.4.3V66.5c0 .3.1.4.3.4zM159.9 73.3c-.3 0-.6-.2-.7-.5V44.6c0-.3.3-.6.6-.6h6.1c.3 0 .6.2.7.5v2.6h.1c1.5-2.2 4.2-3.8 8.2-3.8 2.4 0 4.8.8 6.6 2.4.3.3.4.5.1.8l-3.5 4.1c-.2.3-.6.4-.9.2h-.1c-1.4-.9-3-1.4-4.7-1.4-4.1 0-6 2.7-6 7.4v15.9c0 .3-.3.6-.6.6H159.9zM182.9 65.8c-.8-2.3-1.1-4.8-1.1-7.2-.1-2.5.3-4.9 1.1-7.2 1.8-5.1 6.6-8.1 13.1-8.1s11.2 3 13 8.1c.8 2.3 1.1 4.8 1.1 7.2.1 2.5-.3 4.9-1.1 7.2-1.8 5.1-6.6 8.1-13 8.1s-11.3-2.9-13.1-8.1zm19-1.8c.5-1.7.8-3.6.7-5.4.1-1.8-.1-3.7-.7-5.4-.9-2.5-3.3-4-5.9-3.8-2.6-.2-5.1 1.4-6 3.8-.5 1.8-.8 3.6-.7 5.4-.1 1.8.1 3.7.7 5.4.9 2.5 3.4 4 6 3.8 2.6.2 5-1.3 5.9-3.8zM241.9 73.3c-.4 0-.7-.3-.8-.6L235 53.9h-.1l-6.2 18.7c-.1.4-.4.6-.8.6h-5.4c-.4 0-.7-.3-.8-.6l-10-28.1c-.1-.2 0-.5.2-.6.1 0 .2-.1.3 0h6.3c.4 0 .8.2.9.6l6.1 19.3h.1l6-19.3c.1-.4.5-.6.9-.6h4.7c.4 0 .7.2.9.6l6.4 19.3h.1l5.8-19.3c.1-.4.5-.7.9-.6h6.3c.2-.1.5.1.5.3v.3l-10 28.1c-.1.4-.4.6-.8.6l-5.4.1zM259.3 69.3c-.2-.2-.3-.6-.1-.8l.1-.1 3.7-3.6c.3-.2.7-.2.9 0 2.6 2.1 5.9 3.3 9.3 3.3 3.9 0 5.9-1.5 5.9-3.5 0-1.8-1.1-2.9-5.2-3.2l-3.4-.3c-6.4-.6-9.7-3.6-9.7-8.6 0-5.7 4.4-9.2 12.3-9.2 4.2-.1 8.4 1.2 11.9 3.6.3.2.3.5.2.8v.1l-3.2 3.6c-.2.3-.6.3-.9.1-2.5-1.5-5.4-2.4-8.3-2.4-3.1 0-4.8 1.3-4.8 3s1.1 2.7 5.2 3.1l3.4.3c6.6.6 9.8 3.8 9.8 8.6 0 5.8-4.6 9.9-13.3 9.9-5.1 0-9.9-1.6-13.8-4.7zM291.2 65.8c-.8-2.3-1.2-4.7-1.1-7.2-.1-2.5.3-4.9 1-7.2 1.8-5.1 6.6-8.1 12.9-8.1 6.5 0 11.2 3.1 13 8.1.7 2.1 1 4.1 1 8.8 0 .3-.3.6-.6.6h-19.6c-.2 0-.4.1-.4.3v.1c0 .8.2 1.5.5 2.2 1 2.9 3.5 4.4 7.1 4.4 2.7.1 5.4-.9 7.4-2.8.2-.3.7-.4 1-.1l3.9 3.2c.2.1.3.5.2.7 0 .1-.1.1-.1.1-2.7 2.9-7.2 5-13 5-6.6 0-11.4-3-13.2-8.1zm19.2-13c-.9-2.4-3.2-3.8-6.2-3.8s-5.4 1.4-6.2 3.8c-.3.8-.4 1.6-.4 2.5 0 .2.1.3.3.4h12.5c.2 0 .4-.1.4-.3v-.1c0-.8-.2-1.7-.4-2.5zM323.6 73.3c-.3 0-.6-.2-.7-.5V44.6c0-.3.3-.6.6-.6h6.1c.3 0 .6.2.7.5v2.6h.1c1.5-2.2 4.2-3.8 8.2-3.8 2.4 0 4.8.8 6.6 2.4.3.3.4.5.1.8l-3.5 4.1c-.2.3-.6.4-.9.2h-.1c-1.4-.9-3-1.4-4.7-1.4-4.1 0-6 2.7-6 7.4v15.9c0 .3-.3.6-.6.6H323.6zM346.5 68.5c-.3-.2-.4-.6-.2-.9l4.1-4.4c.2-.3.6-.3.9-.1 3.5 2.7 7.7 4.2 12.1 4.4 5.3 0 8.4-2.5 8.4-6 0-3-2-4.9-8.1-5.7l-2.4-.3c-8.6-1.1-13.5-4.9-13.5-11.8 0-7.5 5.9-12.4 15.1-12.4 5.1-.1 10.1 1.4 14.5 4.2.3.1.4.4.2.7 0 .1-.1.1-.1.2l-3.1 4.5c-.2.3-.6.4-.9.2-3.2-2.1-6.9-3.2-10.7-3.2-4.5 0-7 2.3-7 5.5 0 2.9 2.2 4.8 8.2 5.6l2.4.3c8.6 1.1 13.3 4.9 13.3 12 0 7.3-5.7 12.8-16.8 12.8-6.6-.2-12.9-2.6-16.4-5.6zM393.3 73.8c-6.4 0-8.8-2.9-8.8-8.6V49.8c0-.2-.1-.3-.3-.4H382c-.3 0-.6-.2-.7-.5V44.7c0-.3.3-.6.6-.6h2.2c.2 0 .4-.1.4-.3v-8.1c0-.3.3-.6.6-.6h6.1c.3 0 .6.2.7.5v8.1c0 .2.1.3.3.4h4.3c.3 0 .6.2.7.5V48.8c0 .3-.3.6-.6.6h-4.3c-.2 0-.4.1-.4.3V65c0 2.1.9 2.7 3 2.7h1.6c.3 0 .6.2.7.5v5c0 .3-.3.6-.6.6H393.3zM421.2 73.3c-.3 0-.6-.2-.7-.5v-2.2c-1.5 2-4.5 3.4-8.9 3.4-5.8 0-10.6-2.8-10.6-8.9 0-6.4 4.9-9.3 12.7-9.3h6.4c.2 0 .4-.1.4-.3V54c0-3.3-1.7-4.9-7-4.9-2.6-.1-5.1.6-7.2 2-.3.2-.7.2-.9-.1v-.1l-2.4-4c-.2-.2-.1-.6.1-.8 2.6-1.7 6-2.9 11.2-2.9 9.6 0 13.2 3 13.2 10.2v19.1c0 .3-.3.6-.6.6H421.2v.2zm-.8-9.9v-2.2c0-.2-.1-.3-.3-.4h-5.3c-4.7 0-6.8 1.2-6.8 3.9 0 2.4 1.9 3.6 5.5 3.6 4.4.1 6.9-1.5 6.9-4.9zM433.1 65.8c-.7-2.3-1.1-4.8-1-7.2-.1-2.4.3-4.9 1-7.2 1.8-5.2 6.7-8.1 13.1-8.1 4.2-.2 8.2 1.5 11 4.6.2.2.2.6 0 .8l-.1.1-4.1 3.3c-.3.2-.7.2-.9-.1v-.1c-1.5-1.7-3.6-2.6-5.9-2.5-2.8 0-5 1.3-5.9 3.8-.5 1.8-.8 3.6-.7 5.4-.1 1.8.1 3.7.7 5.5.9 2.5 3.1 3.8 5.9 3.8 2.2.1 4.4-.9 5.9-2.6.2-.3.6-.3.9-.1l4.1 3.3c.3.2.3.5.1.8l-.1.1c-2.9 3-6.9 4.6-11 4.5-6.3 0-11.1-2.8-13-8.1zM482.8 73.3c-.4 0-.8-.2-1-.6l-8-12.3-4.3 4.6v7.7c0 .3-.3.6-.6.6h-6.1c-.3 0-.6-.2-.7-.5V32.6c0-.3.3-.6.6-.6h6.1c.3 0 .6.2.7.5V56.4l10.8-11.8c.3-.4.8-.6 1.2-.6h6.7c.2 0 .4.1.4.3 0 .1 0 .3-.1.3l-10.1 10.7L490 72.7c.1.2.1.4 0 .5-.1.1-.2.1-.3.1h-6.9z"/></symbol><symbol viewBox="0 0 284 84" id="node_modules--servie--logo" xmlns="http://www.w3.org/2000/svg"><g fill="#000" fill-rule="evenodd"><path d="m3.634 26.246 66.379.202-33.366 57.384L3.635 26.246Zm53.919 7.344-41.505-.125L36.69 69.474 57.552 33.59ZM60.754 24.094H51.18c0-7.918-6.438-14.36-14.356-14.36-7.919 0-14.36 6.442-14.36 14.36H12.89C12.89 10.896 23.625.16 36.824.16c13.191-.001 23.93 10.735 23.93 23.933Z"/><path d="M47.203 17.133a4.063 4.063 0 0 1-4.066 4.065 4.067 4.067 0 0 1-4.065-4.066M35.959 16.894a4.067 4.067 0 0 1-8.134 0M58.124 49.235l2.35-3.824c3.158 1.941 7.312.945 9.257-2.218 1.939-3.163.947-7.316-2.216-9.257l2.344-3.825c5.273 3.235 6.928 10.156 3.699 15.431-3.238 5.272-10.16 6.93-15.434 3.693Z"/><path d="M62.541 48.943h5.742v16.539h-5.742z"/><path d="M60.843 75.047a6.42 6.42 0 0 1-1.89-4.562 6.467 6.467 0 0 1 6.46-6.46 6.467 6.467 0 0 1 6.458 6.46 6.456 6.456 0 0 1-1.778 4.451l-3.472-3.301c.3-.311.462-.719.462-1.15 0-.922-.75-1.674-1.67-1.674-.923 0-1.674.751-1.674 1.674 0 .446.172.864.487 1.179l-3.383 3.383ZM17.29 52.349l-2.346-3.824c-3.162 1.941-7.315.945-9.258-2.219a6.742 6.742 0 0 1 2.218-9.257l-2.346-3.825c-5.272 3.236-6.93 10.159-3.696 15.43 3.236 5.268 10.157 6.932 15.428 3.695Z"/><path d="M7.134 52.049h5.744v13.432H7.134z"/><path d="M14.572 75.047a6.407 6.407 0 0 0 1.893-4.562 6.467 6.467 0 0 0-6.459-6.46 6.466 6.466 0 0 0-6.458 6.46c0 1.662.63 3.245 1.778 4.451l3.468-3.301a1.66 1.66 0 0 1-.46-1.15c0-.922.75-1.674 1.672-1.674.923 0 1.673.751 1.673 1.674 0 .446-.175.864-.492 1.179l3.386 3.383ZM115.04 22.17c-.64 0-1.26.06-1.86.18v-8.82h1.86v8.64Zm3.9 30.54c0 5.08-1.92 9.28-5.76 12.6h-1.8c3.84-3.32 5.76-7.52 5.76-12.6 0-4.36-1.44-8.12-4.32-11.28l-7.44-8.16c-1.4-1.56-2.1-3.28-2.1-5.16 0-1.76.59-3.19 1.77-4.29 1.18-1.1 2.65-1.65 4.41-1.65h1.98v.24c-3.24.8-4.86 3-4.86 6.6 0 1.44.6 2.86 1.8 4.26l6.9 8.16c2.44 2.88 3.66 6.64 3.66 11.28Zm-5.88 0c0 3.44-1.23 6.39-3.69 8.85s-5.41 3.69-8.85 3.69c-3.72 0-6.84-1.38-9.36-4.14l3.42-3.06c1.6 1.8 3.58 2.7 5.94 2.7 2.2 0 4.08-.79 5.64-2.37 1.56-1.58 2.34-3.47 2.34-5.67 0-2.08-.7-3.9-2.1-5.46l-7.44-8.22c-2.88-3.2-4.32-6.84-4.32-10.92 0-4.12 1.45-7.58 4.35-10.38 2.9-2.8 6.41-4.2 10.53-4.2v4.5c-2.88 0-5.33.96-7.35 2.88-2.02 1.92-3.03 4.32-3.03 7.2 0 3 1.04 5.64 3.12 7.92l7.5 8.16c2.2 2.4 3.3 5.24 3.3 8.52Zm36.54-29.46h-11.16l-6.54 18.06V22.05h15.9v-8.52h1.8v9.72Zm-3.78 42h-22.56V13.53h20.76v4.5h-16.14v27.42h16.26v4.5h-16.26v10.8h17.94v4.5Zm3.78-11.16h-15.84v2.52h-1.86v-3.72h15.9V41.31h1.8v12.78Zm1.74 11.22h-1.86v-8.7h1.86v8.7Zm37.08-30.24c0 3.76-.78 7.31-2.34 10.65-1.56 3.34-3.72 6.19-6.48 8.55l6.3 10.08-6.12 3.72h-1.8l6.06-3.72-6.3-10.08c2.76-2.36 4.93-5.21 6.51-8.55 1.58-3.34 2.37-6.89 2.37-10.65 0-4.44-1.08-8.6-3.24-12.48-2.12-3.76-4.98-6.78-8.58-9.06h1.86c3.6 2.28 6.44 5.3 8.52 9.06 2.16 3.88 3.24 8.04 3.24 12.48Zm-5.94 0c0 3.72-.91 7.19-2.73 10.41-1.82 3.22-4.27 5.81-7.35 7.77l6.42 10.5-3.84 2.34-6.66-10.86c-2.44.88-4.88 1.32-7.32 1.32-.36 0-.64-.02-.84-.06v8.76h-4.5V13.53H161c5.92 0 10.98 2.11 15.18 6.33 4.2 4.22 6.3 9.29 6.3 15.21Zm-15.84 25.26h-.24c-.12.04-.2.06-.24.06v4.86h-1.86v-4.86l2.16-.36.18.3Zm11.34-25.26c0-4.68-1.67-8.69-5.01-12.03s-7.33-5.01-11.97-5.01h-.84v33.96h.84c4.64 0 8.63-1.66 11.97-4.98 3.34-3.32 5.01-7.3 5.01-11.94Zm-9.66-10.74-2.16 22.5c-.2.08-.51.19-.93.33-.42.14-.73.25-.93.33l.06-24.84c.88.24 2.2.8 3.96 1.68Zm66.12-10.8-19.32 51.72h-1.86l19.38-51.72h1.8Zm-25.62 27.84-.9 2.52-11.16-30.36h4.98l7.08 27.84Zm19.5-27.84-20.4 55.44-20.34-55.44h4.86l15.48 42.18 15.54-42.18h4.86Zm22.74-.06-1.8 51.78h-1.86V13.47h3.66Zm-7.8 51.78h-4.5V13.47h4.5v51.78Zm38.46-42h-11.16l-6.54 18.06V22.05h15.9v-8.52h1.8v9.72Zm-3.78 42h-22.56V13.53h20.76v4.5H260v27.42h16.26v4.5H260v10.8h17.94v4.5Zm3.78-11.16h-15.84v2.52h-1.86v-3.72h15.9V41.31h1.8v12.78Zm1.74 11.22h-1.86v-8.7h1.86v8.7Z"/></g></symbol><symbol fill="none" viewBox="0 0 24 24" id="nodes--TencentCloudOCRGeneral--tencentcloud" xmlns="http://www.w3.org/2000/svg"><path d="M12 2 2 7l10 5 10-5-10-5ZM2 17l10 5 10-5M2 12l10 5 10-5" stroke="#06F" stroke-width="2" stroke-linecap="round" stroke-linejoin="round"/><circle cx="12" cy="12" r="3" fill="#06F"/></symbol></svg>